<svg width="66" height="31" viewBox="0 0 66 31" fill="none" xmlns="http://www.w3.org/2000/svg">
<g clip-path="url(#clip0_19_535)">
<rect width="65.2714" height="30.9648" fill="white" style="mix-blend-mode:color-burn"/>
<path d="M6.99926 11.1843V2.43491C6.99926 2.11071 7.0316 1.91627 7.58278 1.91627H15.0034C16.2998 1.91627 17.0127 3.01824 17.5313 5.09204L17.9526 6.745H19.2162C19.4428 2.04641 19.6371 0.00476074 19.6371 0.00476074C19.6371 0.00476074 16.4615 0.361111 14.582 0.361111H5.08775L-0.00069046 0.199011V1.56011L1.71715 1.88412C2.91615 2.1111 3.20723 2.37003 3.30523 3.4722C3.30523 3.4722 3.40264 6.71266 3.40264 12.0598C3.40264 17.4063 3.30523 20.6148 3.30523 20.6148C3.30523 21.5868 2.91615 21.9431 1.71715 22.1707L-0.00069046 22.4949V23.8552L5.08775 23.6935H13.578C15.4899 23.6935 19.9293 23.8552 19.9293 23.8552C20.0262 22.6884 20.6748 17.4063 20.772 16.8237H19.573L18.3091 19.7078C17.3044 21.9757 15.8464 22.138 14.2258 22.138H9.39707C7.77664 22.138 6.99887 21.4897 6.99887 20.0965V12.7079C6.99887 12.7079 10.531 12.7079 11.7621 12.8053C12.6697 12.8703 13.2203 13.1295 13.5123 14.3932L13.9014 16.0783H15.2941L15.1972 11.8327L15.3915 7.5555H13.9984L13.5451 9.43486C13.253 10.6662 13.0589 10.8936 11.7949 11.0227C10.3693 11.1852 6.99868 11.1527 6.99868 11.1527V11.1848H6.99926V11.1843ZM26.2156 3.34244C25.7619 5.35156 25.3081 6.90691 23.7202 7.944C22.7482 8.59182 21.7758 8.81842 21.3875 8.85095V10.0823H24.2714V20.0307C24.2714 22.8179 26.1188 24.1792 28.5813 24.1792C30.4934 24.1792 32.4697 23.3691 33.1505 21.6836L32.4698 20.8086C32.1456 21.3598 31.1092 22.1697 29.8128 22.1697C28.3872 22.1697 27.6094 21.1973 27.6094 18.735V9.95331L32.4058 10.31L32.6648 8.10591L27.6096 8.30055V3.37459L26.2156 3.34244ZM36.456 18.6445L35.2247 18.6769C35.2894 19.3896 35.3221 20.2973 35.3221 21.1397C35.3221 22.0147 35.2898 22.8249 35.2247 23.2136C35.2247 23.2136 37.6876 24.1201 40.1828 24.1201C43.553 24.1201 46.2429 22.4999 46.2429 19.3241C46.2429 13.8807 38.0766 14.691 38.0766 11.0285C38.0766 9.50571 39.4375 8.92218 40.9282 8.92218C42.0949 8.92218 43.0669 9.34341 43.2613 9.95966L44.0716 12.39L45.2708 12.3253C45.3683 11.0289 45.4327 9.53824 45.6274 8.33943C44.5901 7.88567 42.4187 7.62596 41.0587 7.62596C37.8822 7.62596 35.3227 9.0196 35.3227 12.1307C35.3227 17.5422 43.2941 16.4404 43.2941 20.4269C43.2941 21.8521 42.4187 22.8568 40.4425 22.8568C38.6282 22.8568 37.7205 21.9173 37.3647 20.9771L36.456 18.6445ZM55.9875 22.3882C54.1114 27.6288 51.8149 28.9864 49.7449 28.9864C48.8711 28.9864 48.451 28.5979 48.3211 27.9843L47.8359 25.4606L46.4771 25.5253C46.2184 27.0135 45.9597 28.6637 45.6043 30.0219C46.413 30.6357 47.7709 30.9599 48.8388 30.9599C51.0712 30.9599 54.4672 30.6682 57.572 23.2936L62.7801 11.0023C63.201 9.99932 63.3621 9.90229 64.5913 9.41676L65.2707 9.1586V8.0264L62.1976 8.18811L58.8984 8.0264V9.1586L59.7389 9.41676C60.5797 9.67609 60.9685 9.99932 60.9685 10.5817C60.9685 10.8726 60.8711 11.1639 60.709 11.6163C60.2239 12.8463 57.2156 20.1562 56.4078 21.7092L57.2154 21.4176C55.7919 17.892 53.6257 12.0044 53.3019 11.0025C53.2372 10.8083 53.2049 10.6466 53.2049 10.4841C53.2049 9.96679 53.5606 9.54614 54.3371 9.38461L55.4046 9.15879V8.02659L50.9726 8.18831L47.4471 8.02659V9.15879L48.0294 9.35266C48.838 9.6114 49.0322 9.83799 49.5174 10.97C52.2013 17.1161 53.4636 20.4796 55.1772 24.8792L55.9875 22.3882Z" fill="#999999"/>
</g>
<defs>
<clipPath id="clip0_19_535">
<rect width="65.2714" height="30.9648" fill="white"/>
</clipPath>
</defs>
</svg>
